<?xml version="1.0" standalone="no"?><!DOCTYPE svg PUBLIC "-//W3C//DTD SVG 1.1//EN" "http://www.w3.org/Graphics/SVG/1.1/DTD/svg11.dtd"><svg class="icon" height="512" viewBox="0 0 1024 1024" version="1.1" xmlns="http://www.w3.org/2000/svg"><path d="M283.306667 812.373333C145.635556 812.373333 34.133333 699.733333 34.133333 560.924444 34.133333 446.008889 110.364444 347.022222 218.453333 318.577778c-1.137778-11.377778-2.275556-21.617778-2.275556-32.995556C216.177778 146.773333 327.68 34.133333 465.351111 34.133333c121.742222 0 225.28 89.884444 245.76 209.351111C863.573333 250.311111 989.866667 377.742222 989.866667 527.928889c0 159.288889-108.088889 281.031111-250.311111 284.444444-11.377778 0-21.617778-9.102222-21.617778-21.617778 0-12.515556 9.102222-21.617778 21.617778-22.755556 118.328889-2.275556 208.213333-105.813333 208.213333-240.071111 0-129.706667-112.64-238.933333-245.76-241.208889-2.275556 1.137778-4.551111 1.137778-6.826667 1.137778l-20.48 1.137778-2.275556-21.617778c-9.102222-105.813333-98.986667-190.008889-204.8-190.008889-113.777778 0-205.937778 93.297778-205.937778 207.075556 0 14.791111 1.137778 29.582222 4.551111 44.373333l4.551111 22.755556-22.755556 4.551111c-97.848889 17.066667-169.528889 103.537778-169.528889 203.662222 0 114.915556 92.16 207.075556 205.937778 207.075556 1.137778 0 3.413333 0 4.551111 0 1.137778 0 2.275556 0 3.413333 0 12.515556 0 21.617778 10.24 21.617778 21.617778C312.888889 799.857778 307.2 812.373333 283.306667 812.373333zM715.662222 265.102222c0 3.413333-1.137778 6.826667-2.275556 10.24C715.662222 271.928889 715.662222 268.515556 715.662222 265.102222zM657.635556 892.017778c-7.964444 0-15.928889-3.413333-21.617778-9.102222-5.688889-5.688889-9.102222-13.653333-9.102222-21.617778 0-7.964444 3.413333-15.928889 9.102222-21.617778 11.377778-11.377778 31.857778-11.377778 43.235556 0 5.688889 5.688889 9.102222 13.653333 9.102222 21.617778 0 7.964444-3.413333 15.928889-9.102222 21.617778C673.564444 889.742222 665.6 892.017778 657.635556 892.017778zM512 989.866667c-7.964444 0-15.928889-3.413333-21.617778-9.102222-5.688889-5.688889-9.102222-13.653333-9.102222-21.617778 0-7.964444 3.413333-15.928889 9.102222-21.617778 11.377778-11.377778 31.857778-11.377778 43.235556 0 5.688889 5.688889 9.102222 13.653333 9.102222 21.617778 0 7.964444-3.413333 15.928889-9.102222 21.617778C527.928889 986.453333 519.964444 989.866667 512 989.866667zM366.364444 892.017778c-7.964444 0-15.928889-3.413333-21.617778-9.102222-5.688889-5.688889-9.102222-13.653333-9.102222-21.617778 0-7.964444 3.413333-15.928889 9.102222-21.617778 11.377778-11.377778 31.857778-11.377778 43.235556 0 5.688889 5.688889 9.102222 13.653333 9.102222 21.617778 0 7.964444-3.413333 15.928889-9.102222 21.617778C382.293333 889.742222 374.328889 892.017778 366.364444 892.017778zM512 830.577778c-7.964444 0-15.928889-3.413333-21.617778-9.102222-5.688889-5.688889-9.102222-13.653333-9.102222-21.617778 0-7.964444 3.413333-15.928889 9.102222-21.617778 11.377778-11.377778 31.857778-11.377778 43.235556 0 5.688889 5.688889 9.102222 13.653333 9.102222 21.617778 0 7.964444-3.413333 15.928889-9.102222 21.617778C527.928889 827.164444 519.964444 830.577778 512 830.577778zM366.364444 744.106667c-7.964444 0-15.928889-3.413333-21.617778-9.102222-5.688889-5.688889-9.102222-13.653333-9.102222-21.617778 0-7.964444 3.413333-15.928889 9.102222-21.617778 11.377778-11.377778 31.857778-11.377778 43.235556 0 5.688889 5.688889 9.102222 13.653333 9.102222 21.617778 0 7.964444-3.413333 15.928889-9.102222 21.617778C382.293333 740.693333 374.328889 744.106667 366.364444 744.106667zM512 671.288889c-7.964444 0-15.928889-3.413333-21.617778-9.102222-5.688889-5.688889-9.102222-13.653333-9.102222-21.617778 0-7.964444 3.413333-15.928889 9.102222-21.617778 11.377778-11.377778 31.857778-11.377778 43.235556 0 5.688889 5.688889 9.102222 13.653333 9.102222 21.617778 0 7.964444-3.413333 15.928889-9.102222 21.617778C527.928889 667.875556 519.964444 671.288889 512 671.288889zM657.635556 744.106667c-7.964444 0-15.928889-3.413333-21.617778-9.102222-5.688889-5.688889-9.102222-13.653333-9.102222-21.617778 0-7.964444 3.413333-15.928889 9.102222-21.617778 11.377778-11.377778 31.857778-11.377778 43.235556 0 5.688889 5.688889 9.102222 13.653333 9.102222 21.617778 0 7.964444-3.413333 15.928889-9.102222 21.617778C673.564444 740.693333 665.6 744.106667 657.635556 744.106667z" /></svg>